<svg xmlns="http://www.w3.org/2000/svg" viewBox="0 0 960 920" font-family="ui-monospace, SFMono-Regular, Menlo, Consolas, monospace">
<rect width="960" height="920" fill="#020617" rx="12"/>
<defs>
  <marker id="arrowhead" markerWidth="10" markerHeight="7" refX="9" refY="3.5" orient="auto">
    <polygon points="0 0, 10 3.5, 0 7" fill="#64748b"/>
  </marker>
  <pattern id="grid" width="40" height="40" patternUnits="userSpaceOnUse">
    <path d="M 40 0 L 0 0 0 40" fill="none" stroke="#1e293b" stroke-width="0.5"/>
  </pattern>
</defs>
<rect width="100%" height="100%" fill="url(#grid)"/>
<text x="480.0" y="34" fill="white" font-size="14" font-weight="700" text-anchor="middle">BKN Foundry · a production-grade ontology platform for AI app developers</text>
<rect x="240" y="56" width="200" height="44" rx="6" fill="rgba(136, 19, 55, 0.4)" stroke="#fb7185" stroke-width="1.5"/>
<text x="340.0" y="76.0" fill="white" font-size="12" font-weight="600" text-anchor="middle">Developer</text>
<text x="340.0" y="91.0" fill="#94a3b8" font-size="9" text-anchor="middle">AI application developer</text>
<rect x="520" y="56" width="200" height="44" rx="6" fill="rgba(136, 19, 55, 0.4)" stroke="#fb7185" stroke-width="1.5"/>
<text x="620.0" y="76.0" fill="white" font-size="12" font-weight="600" text-anchor="middle">App / Agent</text>
<text x="620.0" y="91.0" fill="#94a3b8" font-size="9" text-anchor="middle">AI apps built on the ontology</text>
<rect x="20" y="122" width="920" height="668" rx="14" fill="none" stroke="#475569" stroke-width="1.2" stroke-dasharray="6 5"/>
<text x="36" y="140" fill="#cbd5e1" font-size="11" font-weight="700" text-anchor="start">BKN Foundry family</text>
<line x1="340" y1="100" x2="230" y2="162" stroke="#64748b" stroke-width="1.5" marker-end="url(#arrowhead)"/>
<line x1="340" y1="100" x2="440" y2="162" stroke="#64748b" stroke-width="1.5" marker-end="url(#arrowhead)"/>
<line x1="620" y1="100" x2="540" y2="162" stroke="#64748b" stroke-width="1.5" marker-end="url(#arrowhead)"/>
<line x1="620" y1="100" x2="760" y2="162" stroke="#64748b" stroke-width="1.5" marker-end="url(#arrowhead)"/>
<rect x="40" y="162" width="288" height="48" rx="6" fill="rgba(8, 51, 68, 0.45)" stroke="#22d3ee" stroke-width="1.5"/>
<text x="184.0" y="184.0" fill="white" font-size="12" font-weight="600" text-anchor="middle">BKN Studio</text>
<text x="184.0" y="199.0" fill="#94a3b8" font-size="9" text-anchor="middle">Web console · separate repo</text>
<rect x="338" y="162" width="288" height="48" rx="6" fill="rgba(244, 114, 182, 0.2)" stroke="#f472b6" stroke-width="1.5"/>
<text x="482.0" y="184.0" fill="white" font-size="12" font-weight="600" text-anchor="middle">BKN SDK / CLI</text>
<text x="482.0" y="199.0" fill="#94a3b8" font-size="9" text-anchor="middle">Unified access interface</text>
<rect x="636" y="162" width="288" height="48" rx="6" fill="rgba(76, 29, 149, 0.4)" stroke="#a78bfa" stroke-width="1.5"/>
<text x="780.0" y="184.0" fill="white" font-size="12" font-weight="600" text-anchor="middle">BKN Skill</text>
<text x="780.0" y="199.0" fill="#94a3b8" font-size="9" text-anchor="middle">Platform-level · wraps the SDK</text>
<rect x="40" y="236" width="56" height="530" rx="10" fill="rgba(136, 19, 55, 0.4)" stroke="#fb7185" stroke-width="1.5"/>
<text x="64" y="501.0" fill="white" font-size="12" font-weight="600" text-anchor="middle" transform="rotate(-90 64 501.0)">BKN Safe</text>
<text x="82" y="501.0" fill="#94a3b8" font-size="9" text-anchor="middle" transform="rotate(-90 82 501.0)">Access control</text>
<rect x="804" y="236" width="56" height="530" rx="10" fill="rgba(76, 29, 149, 0.4)" stroke="#a78bfa" stroke-width="1.5"/>
<text x="836" y="501.0" fill="white" font-size="12" font-weight="600" text-anchor="middle" transform="rotate(-90 836 501.0)">BKN Agent</text>
<rect x="868" y="236" width="56" height="530" rx="10" fill="rgba(120, 53, 15, 0.35)" stroke="#fbbf24" stroke-width="1.5"/>
<text x="892" y="501.0" fill="white" font-size="12" font-weight="600" text-anchor="middle" transform="rotate(-90 892 501.0)">BKN Trace</text>
<text x="910" y="501.0" fill="#94a3b8" font-size="9" text-anchor="middle" transform="rotate(-90 910 501.0)">Evidence chain</text>
<line x1="184" y1="210" x2="184" y2="236" stroke="#64748b" stroke-width="1.5" marker-end="url(#arrowhead)"/>
<line x1="450" y1="210" x2="450" y2="236" stroke="#64748b" stroke-width="1.5" marker-end="url(#arrowhead)"/>
<line x1="716" y1="210" x2="716" y2="236" stroke="#64748b" stroke-width="1.5" marker-end="url(#arrowhead)"/>
<rect x="112" y="236" width="676" height="232" rx="12" fill="rgba(30, 58, 138, 0.4)" stroke="#60a5fa" stroke-width="1.5"/>
<text x="132" y="260" fill="white" font-size="13" font-weight="700" text-anchor="start">Ontology development platform</text>
<text x="132" y="276" fill="#bfdbfe" font-size="9" text-anchor="start">Three modules built as one system</text>
<rect x="132" y="290" width="200" height="138" rx="8" fill="#0f172a"/>
<rect x="132" y="290" width="200" height="138" rx="8" fill="rgba(8, 51, 68, 0.45)" stroke="#22d3ee" stroke-width="1.5" stroke-dasharray="5 4"/>
<text x="232.0" y="314" fill="white" font-size="12" font-weight="600" text-anchor="middle">BKN Project</text>
<text x="232.0" y="330" fill="#67e8f9" font-size="9" text-anchor="middle">Ontology building</text>
<text x="146" y="356" fill="#e2e8f0" font-size="9.5" text-anchor="start">· Structured + unstructured</text>
<text x="146" y="378" fill="#e2e8f0" font-size="9.5" text-anchor="start">· Top-down and bottom-up</text>
<text x="146" y="400" fill="#e2e8f0" font-size="9.5" text-anchor="start">· Dynamic ontology &amp; sync</text>
<rect x="350" y="290" width="200" height="138" rx="8" fill="#0f172a"/>
<rect x="350" y="290" width="200" height="138" rx="8" fill="rgba(8, 51, 68, 0.45)" stroke="#22d3ee" stroke-width="1.5" stroke-dasharray="5 4"/>
<text x="450.0" y="314" fill="white" font-size="12" font-weight="600" text-anchor="middle">BKN Eval</text>
<text x="450.0" y="330" fill="#67e8f9" font-size="9" text-anchor="middle">Evaluation &amp; optimization</text>
<text x="364" y="356" fill="#e2e8f0" font-size="9.5" text-anchor="start">· Ontology quality + report</text>
<text x="364" y="378" fill="#e2e8f0" font-size="9.5" text-anchor="start">· Semantic &amp; logic checks</text>
<text x="364" y="400" fill="#e2e8f0" font-size="9.5" text-anchor="start">· Function/schema · benchmark</text>
<rect x="568" y="290" width="200" height="138" rx="8" fill="#0f172a"/>
<rect x="568" y="290" width="200" height="138" rx="8" fill="rgba(8, 51, 68, 0.45)" stroke="#22d3ee" stroke-width="1.5" stroke-dasharray="5 4"/>
<text x="668.0" y="314" fill="white" font-size="12" font-weight="600" text-anchor="middle">BKN Workshop</text>
<text x="668.0" y="330" fill="#67e8f9" font-size="9" text-anchor="middle">Capability &amp; app development</text>
<text x="582" y="356" fill="#e2e8f0" font-size="9.5" text-anchor="start">· Metrics · functions</text>
<text x="582" y="378" fill="#e2e8f0" font-size="9.5" text-anchor="start">· Graph visualization widgets</text>
<text x="582" y="400" fill="#e2e8f0" font-size="9.5" text-anchor="start">· AI application assembly</text>
<path d="M 450.0 428 L 450.0 446 L 232.0 446 L 232.0 432" fill="none" stroke="#67e8f9" stroke-width="1.3" stroke-dasharray="4 3" marker-end="url(#arrowhead)"/>
<text x="341.0" y="460" fill="#67e8f9" font-size="9" text-anchor="middle">Quality report feeds back into building</text>
<line x1="450" y1="468" x2="450" y2="488" stroke="#64748b" stroke-width="1.5" marker-end="url(#arrowhead)"/>
<rect x="112" y="488" width="676" height="188" rx="12" fill="rgba(76, 29, 149, 0.4)" stroke="#a78bfa" stroke-width="1.5"/>
<text x="132" y="510" fill="white" font-size="13" font-weight="700" text-anchor="start">BKN Engine</text>
<text x="132" y="525" fill="#cbb6f7" font-size="9" text-anchor="start">Business Knowledge Network engine</text>
<rect x="132" y="536" width="636" height="50" rx="8" fill="#0f172a"/>
<rect x="132" y="536" width="636" height="50" rx="8" fill="rgba(8, 51, 68, 0.45)" stroke="#22d3ee" stroke-width="1.5"/>
<text x="152" y="557" fill="white" font-size="12" font-weight="600" text-anchor="start">Context Loader</text>
<text x="152" y="573" fill="#94a3b8" font-size="9" text-anchor="start">Retrieval capability</text>
<rect x="518" y="543" width="110" height="36" rx="6" fill="rgba(6, 78, 59, 0.4)" stroke="#34d399" stroke-width="1.5"/>
<text x="573" y="566" fill="white" font-size="11" font-weight="600" text-anchor="middle">Retrieval</text>
<rect x="638" y="543" width="110" height="36" rx="6" fill="rgba(6, 78, 59, 0.4)" stroke="#34d399" stroke-width="1.5"/>
<text x="693" y="566" fill="white" font-size="11" font-weight="600" text-anchor="middle">Ranker</text>
<line x1="450" y1="586" x2="450" y2="598" stroke="#64748b" stroke-width="1.5" marker-end="url(#arrowhead)"/>
<rect x="132" y="598" width="636" height="66" rx="8" fill="#0f172a"/>
<rect x="132" y="598" width="636" height="66" rx="8" fill="rgba(6, 78, 59, 0.4)" stroke="#34d399" stroke-width="1.5"/>
<text x="152" y="620" fill="white" font-size="13" font-weight="700" text-anchor="start">BKN</text>
<text x="152" y="636" fill="#9fe6c8" font-size="9" text-anchor="start">Business Knowledge Network</text>
<rect x="362" y="612" width="88" height="38" rx="6" fill="rgba(120, 53, 15, 0.35)" stroke="#fbbf24" stroke-width="1.5"/>
<text x="406" y="636" fill="white" font-size="11" font-weight="600" text-anchor="middle">Data</text>
<rect x="462" y="612" width="88" height="38" rx="6" fill="rgba(120, 53, 15, 0.35)" stroke="#fbbf24" stroke-width="1.5"/>
<text x="506" y="636" fill="white" font-size="11" font-weight="600" text-anchor="middle">Logic</text>
<rect x="562" y="612" width="88" height="38" rx="6" fill="rgba(120, 53, 15, 0.35)" stroke="#fbbf24" stroke-width="1.5"/>
<text x="606" y="636" fill="white" font-size="11" font-weight="600" text-anchor="middle">Risk</text>
<rect x="662" y="612" width="88" height="38" rx="6" fill="rgba(120, 53, 15, 0.35)" stroke="#fbbf24" stroke-width="1.5"/>
<text x="706" y="636" fill="white" font-size="11" font-weight="600" text-anchor="middle">Action</text>
<line x1="230" y1="676" x2="230" y2="700" stroke="#64748b" stroke-width="1.5" marker-end="url(#arrowhead)"/>
<line x1="462" y1="676" x2="462" y2="700" stroke="#64748b" stroke-width="1.5" marker-end="url(#arrowhead)"/>
<line x1="694" y1="676" x2="694" y2="700" stroke="#64748b" stroke-width="1.5" marker-end="url(#arrowhead)"/>
<text x="120" y="692" fill="#94a3b8" font-size="9" text-anchor="start">mapping</text>
<rect x="124" y="700" width="212" height="54" rx="6" fill="rgba(6, 78, 59, 0.4)" stroke="#34d399" stroke-width="1.5"/>
<text x="230.0" y="725.0" fill="white" font-size="12" font-weight="600" text-anchor="middle">VEGA</text>
<text x="230.0" y="740.0" fill="#94a3b8" font-size="9" text-anchor="middle">Data virtualization · data quality</text>
<rect x="356" y="700" width="212" height="54" rx="6" fill="rgba(6, 78, 59, 0.4)" stroke="#34d399" stroke-width="1.5"/>
<text x="462.0" y="725.0" fill="white" font-size="12" font-weight="600" text-anchor="middle">Operator layer</text>
<text x="462.0" y="740.0" fill="#94a3b8" font-size="9" text-anchor="middle">Operators · functions</text>
<rect x="588" y="700" width="212" height="54" rx="6" fill="rgba(6, 78, 59, 0.4)" stroke="#34d399" stroke-width="1.5"/>
<text x="694.0" y="725.0" fill="white" font-size="12" font-weight="600" text-anchor="middle">Exec Factory</text>
<text x="694.0" y="740.0" fill="#94a3b8" font-size="9" text-anchor="middle">APIs · tools · MCP · Skill</text>
<line x1="230" y1="754" x2="230" y2="806" stroke="#64748b" stroke-width="1.5" marker-end="url(#arrowhead)"/>
<line x1="462" y1="754" x2="462" y2="806" stroke="#64748b" stroke-width="1.5" marker-end="url(#arrowhead)"/>
<rect x="112" y="806" width="676" height="38" rx="6" fill="rgba(30, 41, 59, 0.6)" stroke="#94a3b8" stroke-width="1.5"/>
<text x="450" y="830" fill="#cbd5e1" font-size="11" font-weight="600" text-anchor="middle">Multi-source &amp; multi-modal data · structured / unstructured</text>
<rect x="112" y="872" width="26" height="16" rx="3" fill="rgba(8, 51, 68, 0.45)" stroke="#22d3ee" stroke-width="1.5" stroke-dasharray="5 4"/>
<text x="146" y="884" fill="#cbd5e1" font-size="9.5" text-anchor="start">Being built in Q4</text>
<text x="112" y="914" fill="#94a3b8" font-size="9.5" text-anchor="start">Modules are not services: new modules live in existing backends</text>
</svg>
